# xmcd CD database file
# 
# Track frame offsets:
# 	150
# 	15138
# 	33476
# 	53773
# 	74472
# 	89972
# 	103169
# 	116996
# 	134107
# 	155738
# 	170639
# 	184576
# 	202655
# 	220322
# 	236173
# 	251817
# 	269594
# 	284761
# 	303178
# 
# Disc length: 4239 seconds
# 
# Submitted via: Nero 6, 3, 1, 17
# 
# Revision: 0
# Processed by: cddbd v1.5.1PL0 Copyright (c) Steve Scherf et al.
#
DISCID=2c108d13
DTITLE=Homesick James and Snooky Pryor - The Big Bear Sessions disc 2
DYEAR=1900
DGENRE=
TTITLE0=Shake Your Boogie
TTITLE1=Bottle Up And Go
TTITLE2=You Don't Know My Name
TTITLE3=Bluebird Blues
TTITLE4=Can't Love Me And Homesick Too
TTITLE5=Baby Left Me A Mule To Ride
TTITLE6=Jump And Shout
TTITLE7=Gonna Have A Good Time
TTITLE8=So Sweet
TTITLE9=Crazy 'Bout You
TTITLE10=Nothin' But Trouble
TTITLE11=Cross Town
TTITLE12=After You There Won't Be Nobody Else
TTITLE13=I Feel Alright
TTITLE14=She Knows How To Love Me
TTITLE15=Dangerous Woman
TTITLE16=Sloppy Drunk
TTITLE17=Sweet Home Chicago
TTITLE18=Mailman
EXTD=
EXTT0=
EXTT1=
EXTT2=
EXTT3=
EXTT4=
EXTT5=
EXTT6=
EXTT7=
EXTT8=
EXTT9=
EXTT10=
EXTT11=
EXTT12=
EXTT13=
EXTT14=
EXTT15=
EXTT16=
EXTT17=
EXTT18=
PLAYORDER=
